<svg width="227" height="71" viewBox="0 0 227 71" fill="none" xmlns="http://www.w3.org/2000/svg">
<rect x="6" width="215" height="71" rx="35.5" fill="#ACC8E8"/>
<path d="M18.8425 47L27.6825 20.76H31.4425L40.2825 47H36.7625L32.2025 32.32C31.7492 30.8533 31.2958 29.4 30.8425 27.96C30.4158 26.4933 30.0025 25 29.6025 23.48H29.4425C29.0158 25 28.5892 26.4933 28.1625 27.96C27.7358 29.4 27.2958 30.8533 26.8425 32.32L22.2425 47H18.8425ZM23.4825 39V36.32H35.5225V39H23.4825ZM54.3469 47.48C53.3869 47.48 52.3602 47.2533 51.2669 46.8C50.2002 46.32 49.2135 45.6667 48.3069 44.84H48.1869L47.9069 47H45.2669V18.52H48.5469V26.28L48.4269 30.04H48.5469C49.4269 29.1333 50.4402 28.4133 51.5869 27.88C52.7602 27.3467 53.9202 27.08 55.0669 27.08C56.8269 27.08 58.3069 27.4933 59.5069 28.32C60.7069 29.12 61.6135 30.2667 62.2269 31.76C62.8402 33.2267 63.1469 34.96 63.1469 36.96C63.1469 39.1733 62.7335 41.0667 61.9069 42.64C61.1069 44.2133 60.0402 45.4133 58.7069 46.24C57.3735 47.0667 55.9202 47.48 54.3469 47.48ZM53.8269 44.72C54.9469 44.72 55.9469 44.4133 56.8269 43.8C57.7335 43.1867 58.4402 42.3067 58.9469 41.16C59.4802 39.9867 59.7469 38.6 59.7469 37C59.7469 35.5867 59.5602 34.3467 59.1869 33.28C58.8135 32.1867 58.2269 31.3467 57.4269 30.76C56.6269 30.1467 55.5735 29.84 54.2669 29.84C53.3869 29.84 52.4535 30.08 51.4669 30.56C50.5069 31.0133 49.5335 31.7467 48.5469 32.76V42.44C49.4802 43.2667 50.4135 43.8533 51.3469 44.2C52.3069 44.5467 53.1335 44.72 53.8269 44.72ZM77.5313 47.48C75.8246 47.48 74.2379 47.08 72.7713 46.28C71.3313 45.48 70.1579 44.32 69.2513 42.8C68.3713 41.28 67.9313 39.4533 67.9313 37.32C67.9313 35.1333 68.3713 33.28 69.2513 31.76C70.1579 30.24 71.3313 29.08 72.7713 28.28C74.2379 27.48 75.8246 27.08 77.5313 27.08C79.2379 27.08 80.8113 27.48 82.2513 28.28C83.7179 29.08 84.8913 30.24 85.7713 31.76C86.6779 33.28 87.1313 35.1333 87.1313 37.32C87.1313 39.4533 86.6779 41.28 85.7713 42.8C84.8913 44.32 83.7179 45.48 82.2513 46.28C80.8113 47.08 79.2379 47.48 77.5313 47.48ZM77.5313 44.76C78.7846 44.76 79.8779 44.4533 80.8113 43.84C81.7446 43.2 82.4646 42.32 82.9713 41.2C83.4779 40.08 83.7313 38.7867 83.7313 37.32C83.7313 35.8267 83.4779 34.52 82.9713 33.4C82.4646 32.2533 81.7446 31.3733 80.8113 30.76C79.8779 30.12 78.7846 29.8 77.5313 29.8C76.2779 29.8 75.1846 30.12 74.2513 30.76C73.3446 31.3733 72.6246 32.2533 72.0913 33.4C71.5846 34.52 71.3313 35.8267 71.3313 37.32C71.3313 38.7867 71.5846 40.08 72.0913 41.2C72.6246 42.32 73.3446 43.2 74.2513 43.84C75.1846 44.4533 76.2779 44.76 77.5313 44.76ZM99.3556 47.48C97.0356 47.48 95.329 46.8133 94.2356 45.48C93.1423 44.1467 92.5956 42.2 92.5956 39.64V27.56H95.9156V39.2C95.9156 41.04 96.249 42.4133 96.9156 43.32C97.609 44.2 98.769 44.64 100.396 44.64C101.516 44.64 102.529 44.36 103.436 43.8C104.369 43.2133 105.369 42.2933 106.436 41.04V27.56H109.716V47H107.036L106.756 43.6H106.596C105.609 44.72 104.529 45.6533 103.356 46.4C102.182 47.12 100.849 47.48 99.3556 47.48ZM129.26 47.48C127.367 47.48 125.873 47.1467 124.78 46.48C123.687 45.7867 122.9 44.84 122.42 43.64C121.967 42.44 121.74 41.04 121.74 39.44V30.24H116.26V27.76L121.86 27.56L122.3 21.32H125.02V27.56H134.58V30.24H125.02V39.48C125.02 40.6267 125.167 41.6 125.46 42.4C125.753 43.2 126.26 43.8 126.98 44.2C127.7 44.6 128.687 44.8 129.94 44.8C130.873 44.8 131.713 44.72 132.46 44.56C133.207 44.4 133.927 44.1867 134.62 43.92L135.34 46.32C134.46 46.64 133.527 46.9067 132.54 47.12C131.58 47.36 130.487 47.48 129.26 47.48ZM171.309 47.48C168.989 47.48 167.282 46.8133 166.189 45.48C165.095 44.1467 164.549 42.2 164.549 39.64V27.56H167.869V39.2C167.869 41.04 168.202 42.4133 168.869 43.32C169.562 44.2 170.722 44.64 172.349 44.64C173.469 44.64 174.482 44.36 175.389 43.8C176.322 43.2133 177.322 42.2933 178.389 41.04V27.56H181.669V47H178.989L178.709 43.6H178.549C177.562 44.72 176.482 45.6533 175.309 46.4C174.135 47.12 172.802 47.48 171.309 47.48ZM197.853 47.48C195.96 47.48 194.186 47.1733 192.533 46.56C190.88 45.9467 189.466 45.24 188.293 44.44L189.813 42.28C190.933 43.08 192.173 43.72 193.533 44.2C194.893 44.68 196.466 44.92 198.253 44.92C199.906 44.92 201.133 44.6133 201.933 44C202.76 43.3867 203.173 42.68 203.173 41.88C203.173 41.5067 203.093 41.16 202.933 40.84C202.8 40.52 202.52 40.2133 202.093 39.92C201.693 39.6267 201.093 39.3467 200.293 39.08C199.493 38.8133 198.426 38.5467 197.093 38.28C194.56 37.7467 192.653 37.0267 191.373 36.12C190.12 35.2133 189.493 34.04 189.493 32.6C189.493 31.0267 190.173 29.72 191.533 28.68C192.893 27.6133 194.906 27.08 197.573 27.08C199.066 27.08 200.506 27.3333 201.893 27.84C203.28 28.32 204.453 28.8933 205.413 29.56L203.813 31.68C202.933 31.04 201.933 30.5467 200.813 30.2C199.693 29.8267 198.52 29.64 197.293 29.64C196.173 29.64 195.28 29.7733 194.613 30.04C193.973 30.28 193.506 30.6133 193.213 31.04C192.946 31.4667 192.813 31.9333 192.813 32.44C192.813 33.2667 193.253 33.92 194.133 34.4C195.04 34.8533 196.48 35.28 198.453 35.68C200.613 36.1333 202.266 36.64 203.413 37.2C204.586 37.76 205.386 38.4 205.813 39.12C206.266 39.84 206.493 40.6933 206.493 41.68C206.493 42.7467 206.16 43.72 205.493 44.6C204.826 45.4533 203.853 46.1467 202.573 46.68C201.293 47.2133 199.72 47.48 197.853 47.48Z" fill="black"/>
</svg>
