<svg width="227" height="71" viewBox="0 0 227 71" fill="none" xmlns="http://www.w3.org/2000/svg">
<rect width="227" height="71" rx="35.5" fill="#ACC8E8"/>
<path d="M31.6025 47.48C29.9758 47.48 28.4692 47.1733 27.0825 46.56C25.6958 45.9467 24.4825 45.0667 23.4425 43.92C22.4025 42.7467 21.5892 41.32 21.0025 39.64C20.4425 37.9333 20.1625 36.0133 20.1625 33.88C20.1625 31.08 20.6692 28.6667 21.6825 26.64C22.6958 24.5867 24.0825 23.0133 25.8425 21.92C27.6025 20.8267 29.6292 20.28 31.9225 20.28C33.4958 20.28 34.8958 20.6133 36.1225 21.28C37.3492 21.92 38.3358 22.6533 39.0825 23.48L37.2025 25.6C36.5358 24.8533 35.7625 24.2667 34.8825 23.84C34.0025 23.4133 33.0158 23.2 31.9225 23.2C30.2425 23.2 28.7758 23.64 27.5225 24.52C26.2958 25.3733 25.3358 26.5867 24.6425 28.16C23.9492 29.7333 23.6025 31.6133 23.6025 33.8C23.6025 36.0133 23.9492 37.92 24.6425 39.52C25.3358 41.12 26.2958 42.36 27.5225 43.24C28.7758 44.12 30.2425 44.56 31.9225 44.56C33.1225 44.56 34.2025 44.3067 35.1625 43.8C36.1225 43.2933 37.0158 42.5733 37.8425 41.64L39.7225 43.68C38.7092 44.88 37.5358 45.8133 36.2025 46.48C34.8692 47.1467 33.3358 47.48 31.6025 47.48ZM53.5469 47.48C51.8402 47.48 50.2535 47.08 48.7869 46.28C47.3469 45.48 46.1735 44.32 45.2669 42.8C44.3869 41.28 43.9469 39.4533 43.9469 37.32C43.9469 35.1333 44.3869 33.28 45.2669 31.76C46.1735 30.24 47.3469 29.08 48.7869 28.28C50.2535 27.48 51.8402 27.08 53.5469 27.08C55.2535 27.08 56.8269 27.48 58.2669 28.28C59.7335 29.08 60.9069 30.24 61.7869 31.76C62.6935 33.28 63.1469 35.1333 63.1469 37.32C63.1469 39.4533 62.6935 41.28 61.7869 42.8C60.9069 44.32 59.7335 45.48 58.2669 46.28C56.8269 47.08 55.2535 47.48 53.5469 47.48ZM53.5469 44.76C54.8002 44.76 55.8935 44.4533 56.8269 43.84C57.7602 43.2 58.4802 42.32 58.9869 41.2C59.4935 40.08 59.7469 38.7867 59.7469 37.32C59.7469 35.8267 59.4935 34.52 58.9869 33.4C58.4802 32.2533 57.7602 31.3733 56.8269 30.76C55.8935 30.12 54.8002 29.8 53.5469 29.8C52.2935 29.8 51.2002 30.12 50.2669 30.76C49.3602 31.3733 48.6402 32.2533 48.1069 33.4C47.6002 34.52 47.3469 35.8267 47.3469 37.32C47.3469 38.7867 47.6002 40.08 48.1069 41.2C48.6402 42.32 49.3602 43.2 50.2669 43.84C51.2002 44.4533 52.2935 44.76 53.5469 44.76ZM69.2513 47V27.56H71.9713L72.2513 30.88H72.4113C73.4246 29.7867 74.5179 28.88 75.6913 28.16C76.8646 27.44 78.2113 27.08 79.7313 27.08C82.0246 27.08 83.7179 27.7467 84.8113 29.08C85.9046 30.4133 86.4513 32.36 86.4513 34.92V47H83.1713V35.36C83.1713 33.52 82.8246 32.16 82.1313 31.28C81.4379 30.3733 80.2913 29.92 78.6913 29.92C77.5446 29.92 76.5179 30.2133 75.6113 30.8C74.7046 31.3867 73.6779 32.2667 72.5313 33.44V47H69.2513ZM105.276 47.48C103.382 47.48 101.889 47.1467 100.796 46.48C99.7023 45.7867 98.9156 44.84 98.4356 43.64C97.9823 42.44 97.7556 41.04 97.7556 39.44V30.24H92.2756V27.76L97.8756 27.56L98.3156 21.32H101.036V27.56H110.596V30.24H101.036V39.48C101.036 40.6267 101.182 41.6 101.476 42.4C101.769 43.2 102.276 43.8 102.996 44.2C103.716 44.6 104.702 44.8 105.956 44.8C106.889 44.8 107.729 44.72 108.476 44.56C109.222 44.4 109.942 44.1867 110.636 43.92L111.356 46.32C110.476 46.64 109.542 46.9067 108.556 47.12C107.596 47.36 106.502 47.48 105.276 47.48ZM123.34 47.48C122.14 47.48 121.033 47.2667 120.02 46.84C119.007 46.3867 118.207 45.7467 117.62 44.92C117.033 44.0933 116.74 43.1067 116.74 41.96C116.74 39.7733 117.833 38.12 120.02 37C122.207 35.8533 125.807 35.08 130.82 34.68C130.793 33.8 130.607 32.9867 130.26 32.24C129.94 31.4933 129.407 30.9067 128.66 30.48C127.913 30.0267 126.913 29.8 125.66 29.8C124.833 29.8 124.007 29.92 123.18 30.16C122.38 30.3733 121.607 30.6667 120.86 31.04C120.14 31.3867 119.473 31.7467 118.86 32.12L117.58 29.88C118.22 29.4533 118.993 29.0267 119.9 28.6C120.833 28.1467 121.833 27.7867 122.9 27.52C123.967 27.2267 125.073 27.08 126.22 27.08C128.007 27.08 129.473 27.4133 130.62 28.08C131.793 28.7467 132.66 29.68 133.22 30.88C133.807 32.0533 134.1 33.4533 134.1 35.08V47H131.42L131.14 44.36H131.02C129.953 45.2133 128.753 45.9467 127.42 46.56C126.087 47.1733 124.727 47.48 123.34 47.48ZM124.22 44.84C125.34 44.84 126.447 44.5867 127.54 44.08C128.633 43.5733 129.727 42.8667 130.82 41.96V36.84C128.047 37.08 125.86 37.4133 124.26 37.84C122.687 38.2667 121.567 38.8133 120.9 39.48C120.26 40.12 119.94 40.8667 119.94 41.72C119.94 42.44 120.14 43.04 120.54 43.52C120.94 43.9733 121.46 44.3067 122.1 44.52C122.767 44.7333 123.473 44.84 124.22 44.84ZM151.324 47.48C149.298 47.48 147.471 47.08 145.844 46.28C144.244 45.48 142.978 44.32 142.044 42.8C141.138 41.28 140.684 39.4533 140.684 37.32C140.684 35.1333 141.178 33.28 142.164 31.76C143.151 30.24 144.458 29.08 146.084 28.28C147.738 27.48 149.551 27.08 151.524 27.08C153.124 27.08 154.498 27.36 155.644 27.92C156.818 28.48 157.804 29.1467 158.604 29.92L156.964 32.04C156.164 31.3467 155.338 30.8 154.484 30.4C153.631 30 152.684 29.8 151.644 29.8C150.151 29.8 148.831 30.12 147.684 30.76C146.538 31.3733 145.644 32.2533 145.004 33.4C144.391 34.52 144.084 35.8267 144.084 37.32C144.084 38.7867 144.391 40.08 145.004 41.2C145.618 42.32 146.484 43.2 147.604 43.84C148.751 44.4533 150.071 44.76 151.564 44.76C152.764 44.76 153.858 44.52 154.844 44.04C155.858 43.56 156.764 42.9867 157.564 42.32L159.044 44.44C157.978 45.4 156.778 46.1467 155.444 46.68C154.138 47.2133 152.764 47.48 151.324 47.48ZM177.229 47.48C175.335 47.48 173.842 47.1467 172.749 46.48C171.655 45.7867 170.869 44.84 170.389 43.64C169.935 42.44 169.709 41.04 169.709 39.44V30.24H164.229V27.76L169.829 27.56L170.269 21.32H172.989V27.56H182.549V30.24H172.989V39.48C172.989 40.6267 173.135 41.6 173.429 42.4C173.722 43.2 174.229 43.8 174.949 44.2C175.669 44.6 176.655 44.8 177.909 44.8C178.842 44.8 179.682 44.72 180.429 44.56C181.175 44.4 181.895 44.1867 182.589 43.92L183.309 46.32C182.429 46.64 181.495 46.9067 180.509 47.12C179.549 47.36 178.455 47.48 177.229 47.48ZM197.853 47.48C195.96 47.48 194.186 47.1733 192.533 46.56C190.88 45.9467 189.466 45.24 188.293 44.44L189.813 42.28C190.933 43.08 192.173 43.72 193.533 44.2C194.893 44.68 196.466 44.92 198.253 44.92C199.906 44.92 201.133 44.6133 201.933 44C202.76 43.3867 203.173 42.68 203.173 41.88C203.173 41.5067 203.093 41.16 202.933 40.84C202.8 40.52 202.52 40.2133 202.093 39.92C201.693 39.6267 201.093 39.3467 200.293 39.08C199.493 38.8133 198.426 38.5467 197.093 38.28C194.56 37.7467 192.653 37.0267 191.373 36.12C190.12 35.2133 189.493 34.04 189.493 32.6C189.493 31.0267 190.173 29.72 191.533 28.68C192.893 27.6133 194.906 27.08 197.573 27.08C199.066 27.08 200.506 27.3333 201.893 27.84C203.28 28.32 204.453 28.8933 205.413 29.56L203.813 31.68C202.933 31.04 201.933 30.5467 200.813 30.2C199.693 29.8267 198.52 29.64 197.293 29.64C196.173 29.64 195.28 29.7733 194.613 30.04C193.973 30.28 193.506 30.6133 193.213 31.04C192.946 31.4667 192.813 31.9333 192.813 32.44C192.813 33.2667 193.253 33.92 194.133 34.4C195.04 34.8533 196.48 35.28 198.453 35.68C200.613 36.1333 202.266 36.64 203.413 37.2C204.586 37.76 205.386 38.4 205.813 39.12C206.266 39.84 206.493 40.6933 206.493 41.68C206.493 42.7467 206.16 43.72 205.493 44.6C204.826 45.4533 203.853 46.1467 202.573 46.68C201.293 47.2133 199.72 47.48 197.853 47.48Z" fill="black"/>
</svg>
