<svg width="354" height="91" viewBox="0 0 354 91" fill="none" xmlns="http://www.w3.org/2000/svg">
<rect x="12" y="18" width="342" height="73" fill="#889BB1"/>
<rect width="342" height="73" fill="#ACC8E8"/>
<path d="M111.747 48.48C109.827 48.48 108.054 48.1333 106.427 47.44C104.827 46.72 103.427 45.7733 102.227 44.6L104.227 42.28C105.214 43.2667 106.36 44.0667 107.667 44.68C109 45.2667 110.414 45.56 111.907 45.56C113.72 45.56 115.12 45.1733 116.107 44.4C117.12 43.6267 117.627 42.6267 117.627 41.4C117.627 40.4667 117.414 39.72 116.987 39.16C116.587 38.6 116.027 38.1333 115.307 37.76C114.614 37.3867 113.814 37.0133 112.907 36.64L109.147 35C108.267 34.6267 107.387 34.16 106.507 33.6C105.654 33.04 104.934 32.3333 104.347 31.48C103.76 30.6 103.467 29.52 103.467 28.24C103.467 26.9067 103.827 25.72 104.547 24.68C105.294 23.6133 106.32 22.7867 107.627 22.2C108.934 21.5867 110.414 21.28 112.067 21.28C113.72 21.28 115.24 21.5867 116.627 22.2C118.014 22.7867 119.187 23.56 120.147 24.52L118.387 26.68C117.534 25.9067 116.587 25.3067 115.547 24.88C114.507 24.4267 113.307 24.2 111.947 24.2C110.427 24.2 109.2 24.5467 108.267 25.24C107.334 25.9067 106.867 26.84 106.867 28.04C106.867 28.8667 107.094 29.5467 107.547 30.08C108.027 30.6133 108.627 31.0533 109.347 31.4C110.067 31.7467 110.8 32.08 111.547 32.4L115.227 34C116.32 34.4267 117.307 34.9467 118.187 35.56C119.067 36.1467 119.76 36.88 120.267 37.76C120.774 38.64 121.027 39.72 121.027 41C121.027 42.3867 120.654 43.6533 119.907 44.8C119.16 45.92 118.094 46.8133 116.707 47.48C115.32 48.1467 113.667 48.48 111.747 48.48ZM136.731 48.48C134.785 48.48 133.011 48.08 131.411 47.28C129.838 46.48 128.585 45.32 127.651 43.8C126.718 42.2533 126.251 40.4 126.251 38.24C126.251 36.1333 126.718 34.32 127.651 32.8C128.585 31.28 129.798 30.12 131.291 29.32C132.811 28.4933 134.438 28.08 136.171 28.08C138.038 28.08 139.625 28.4667 140.931 29.24C142.265 29.9867 143.278 31.04 143.971 32.4C144.691 33.76 145.051 35.36 145.051 37.2C145.051 37.5733 145.038 37.9333 145.011 38.28C144.985 38.6267 144.945 38.9333 144.891 39.2H128.451V36.64H142.931L142.091 37.56C142.091 35.2667 141.558 33.5467 140.491 32.4C139.451 31.2533 138.038 30.68 136.251 30.68C135.051 30.68 133.931 30.9733 132.891 31.56C131.878 32.1467 131.065 33 130.451 34.12C129.838 35.24 129.531 36.6133 129.531 38.24C129.531 39.92 129.865 41.32 130.531 42.44C131.198 43.56 132.105 44.4133 133.251 45C134.398 45.56 135.691 45.84 137.131 45.84C138.305 45.84 139.358 45.68 140.291 45.36C141.251 45.0133 142.171 44.56 143.051 44L144.251 46.16C143.291 46.8 142.185 47.3467 140.931 47.8C139.705 48.2533 138.305 48.48 136.731 48.48ZM157.356 48.48C156.156 48.48 155.049 48.2667 154.036 47.84C153.022 47.3867 152.222 46.7467 151.636 45.92C151.049 45.0933 150.756 44.1067 150.756 42.96C150.756 40.7733 151.849 39.12 154.036 38C156.222 36.8533 159.822 36.08 164.836 35.68C164.809 34.8 164.622 33.9867 164.276 33.24C163.956 32.4933 163.422 31.9067 162.676 31.48C161.929 31.0267 160.929 30.8 159.676 30.8C158.849 30.8 158.022 30.92 157.196 31.16C156.396 31.3733 155.622 31.6667 154.876 32.04C154.156 32.3867 153.489 32.7467 152.876 33.12L151.596 30.88C152.236 30.4533 153.009 30.0267 153.916 29.6C154.849 29.1467 155.849 28.7867 156.916 28.52C157.982 28.2267 159.089 28.08 160.236 28.08C162.022 28.08 163.489 28.4133 164.636 29.08C165.809 29.7467 166.676 30.68 167.236 31.88C167.822 33.0533 168.116 34.4533 168.116 36.08V48H165.436L165.156 45.36H165.036C163.969 46.2133 162.769 46.9467 161.436 47.56C160.102 48.1733 158.742 48.48 157.356 48.48ZM158.236 45.84C159.356 45.84 160.462 45.5867 161.556 45.08C162.649 44.5733 163.742 43.8667 164.836 42.96V37.84C162.062 38.08 159.876 38.4133 158.276 38.84C156.702 39.2667 155.582 39.8133 154.916 40.48C154.276 41.12 153.956 41.8667 153.956 42.72C153.956 43.44 154.156 44.04 154.556 44.52C154.956 44.9733 155.476 45.3067 156.116 45.52C156.782 45.7333 157.489 45.84 158.236 45.84ZM177.34 48V28.56H180.06L180.34 33.16H180.46C181.473 31.5867 182.727 30.3467 184.22 29.44C185.713 28.5333 187.353 28.08 189.14 28.08C189.86 28.08 190.527 28.1467 191.14 28.28C191.78 28.3867 192.393 28.5867 192.98 28.88L192.22 31.72C191.553 31.48 190.98 31.3067 190.5 31.2C190.02 31.0933 189.393 31.04 188.62 31.04C187.153 31.04 185.74 31.4667 184.38 32.32C183.047 33.1467 181.793 34.5733 180.62 36.6V48H177.34ZM209.324 48.48C207.298 48.48 205.471 48.08 203.844 47.28C202.244 46.48 200.978 45.32 200.044 43.8C199.138 42.28 198.684 40.4533 198.684 38.32C198.684 36.1333 199.178 34.28 200.164 32.76C201.151 31.24 202.458 30.08 204.084 29.28C205.738 28.48 207.551 28.08 209.524 28.08C211.124 28.08 212.498 28.36 213.644 28.92C214.818 29.48 215.804 30.1467 216.604 30.92L214.964 33.04C214.164 32.3467 213.338 31.8 212.484 31.4C211.631 31 210.684 30.8 209.644 30.8C208.151 30.8 206.831 31.12 205.684 31.76C204.538 32.3733 203.644 33.2533 203.004 34.4C202.391 35.52 202.084 36.8267 202.084 38.32C202.084 39.7867 202.391 41.08 203.004 42.2C203.618 43.32 204.484 44.2 205.604 44.84C206.751 45.4533 208.071 45.76 209.564 45.76C210.764 45.76 211.858 45.52 212.844 45.04C213.858 44.56 214.764 43.9867 215.564 43.32L217.044 45.44C215.978 46.4 214.778 47.1467 213.444 47.68C212.138 48.2133 210.764 48.48 209.324 48.48ZM223.189 48V19.52H226.469V27.28L226.269 31.88H226.389C227.375 30.8133 228.455 29.92 229.629 29.2C230.802 28.4533 232.149 28.08 233.669 28.08C235.962 28.08 237.655 28.7467 238.749 30.08C239.842 31.4133 240.389 33.36 240.389 35.92V48H237.109V36.36C237.109 34.52 236.762 33.16 236.069 32.28C235.375 31.3733 234.229 30.92 232.629 30.92C231.482 30.92 230.455 31.2133 229.549 31.8C228.642 32.3867 227.615 33.2667 226.469 34.44V48H223.189Z" fill="black"/>
</svg>
